<?xml version="1.0" standalone="no"?><!DOCTYPE svg PUBLIC "-//W3C//DTD SVG 1.1//EN" "http://www.w3.org/Graphics/SVG/1.1/DTD/svg11.dtd"><svg t="1528881808093" class="icon" style="" viewBox="0 0 1024 1024" version="1.1" xmlns="http://www.w3.org/2000/svg" p-id="4852" xmlns:xlink="http://www.w3.org/1999/xlink" width="64" height="64"><defs><style type="text/css"></style></defs><path d="M512.967024 723.577766c-12.101619 0-23.49204-4.592598-32.103162-12.928451L313.985134 549.120432c-27.166733-26.087145-42.138726-60.877509-42.138726-97.964172s14.995529-71.923076 42.230824-98.078783c27.051099-25.972535 62.9671-40.255843 101.109816-40.255843 36.673248 0 68.225871 13.158694 96.471169 40.255843l0.734734 0.849344 1.906419-1.836835c27.556613-26.431999 59.109236-39.268352 96.471169-39.268352 38.142715 0 74.036203 14.283308 101.087303 40.23333l0 0c27.64871 26.454512 42.253336 60.371996 42.253336 98.102319 0 37.110199-14.995529 71.923076-42.207287 98.032734L545.07121 710.671829C536.482601 718.984145 525.09218 723.577766 512.967024 723.577766zM415.187047 348.093976c-29.003568 0-56.238862 10.816347-76.676333 30.426987-20.2543 19.427468-31.391964 45.239344-31.391964 72.635297s11.137665 53.16178 31.345915 72.565712l166.948313 161.597445c3.903913 3.811816 11.252275 3.789303 15.110139 0.022513l166.902264-161.551396c20.276812-19.449981 31.414477-45.239344 31.414477-72.635297 0-27.877931-10.838859-52.977585-31.368428-72.611761l-0.022513-0.022513c-20.437471-19.611663-47.672766-30.426987-76.676333-30.426987-28.222785 0-51.117215 9.345856-72.037686 29.439496l-25.328875 30.817889-26.546609-30.151717C465.340307 357.670076 442.560488 348.093976 415.187047 348.093976z" p-id="4853" fill="#bfbfbf"></path><path d="M511.336898 962.241424c-59.017138 0-118.011764-11.780301-174.066431-35.272341C226.400357 880.466979 140.262534 793.57191 94.747921 682.288384 0.802272 452.557166 111.258966 189.228759 340.967672 95.260597c229.731218-93.945649 493.058602 16.488533 587.027787 246.196215 28.016077 68.524676 38.808888 143.386688 31.207769 216.503962-0.98749 9.713222-9.644661 16.8559-19.358907 15.730263-9.69071-1.010003-16.740266-9.668197-15.730263-19.358907 7.003508-67.376527-2.938935-136.359644-28.774347-199.51094-41.955554-102.556771-121.318066-182.65504-223.508493-225.505987-102.21294-42.87346-214.965933-43.332924-317.499168-1.400906C142.604882 214.512608 40.805358 457.218326 127.402645 668.922982c41.955554 102.556771 121.318066 182.65504 223.508493 225.505987 102.21294 42.87346 214.965933 43.332924 317.499168 1.400906 9.002025-3.651157 19.312858 0.642636 23.010063 9.644661 3.674693 9.024537-0.642636 19.312858-9.644661 23.010063C626.753557 950.989149 569.022715 962.241424 511.336898 962.241424z" p-id="4854" fill="#bfbfbf"></path><path d="M830.581826 826.134537c-0.229221 0-0.459464 0-0.688685-0.022513-9.736758-0.367367-17.337877-8.54256-16.946974-18.279319l4.455475-116.610858c0.344854-9.759271 8.243755-17.888416 18.279319-16.946974 9.736758 0.367367 17.337877 8.54256 16.946974 18.279319l-4.455475 116.610858C847.827605 818.671565 839.997266 826.134537 830.581826 826.134537z" p-id="4855" fill="#bfbfbf"></path><path d="M947.192683 830.588989c-0.229221 0-0.459464 0-0.688685-0.022513l-116.610858-4.455475c-9.736758-0.367367-17.337877-8.54256-16.946974-18.279319 0.344854-9.736758 7.876388-17.797341 18.279319-16.946974l116.610858 4.455475c9.736758 0.367367 17.337877 8.54256 16.946974 18.279319C964.438463 823.126017 956.608124 830.588989 947.192683 830.588989z" p-id="4856" fill="#bfbfbf"></path></svg>