<?xml version="1.0" standalone="no"?><!DOCTYPE svg PUBLIC "-//W3C//DTD SVG 1.1//EN" "http://www.w3.org/Graphics/SVG/1.1/DTD/svg11.dtd"><svg t="1528881508996" class="icon" style="" viewBox="0 0 1024 1024" version="1.1" xmlns="http://www.w3.org/2000/svg" p-id="3963" xmlns:xlink="http://www.w3.org/1999/xlink" width="64" height="64"><defs><style type="text/css"></style></defs><path d="M502.972 879.673a22.188 22.188 0 0 1-16.357-6.659L173.468 564.461a238.12 238.12 0 0 1-82.695-179.405c1.778-126.227 99.288-230.381 225.122-240.468 12.42-1.077 23.362 8.115 24.44 20.539 1.077 12.42-8.116 23.364-20.537 24.44-102.322 8.168-181.628 92.85-183.082 195.489a194.337 194.337 0 0 0 68.361 146.51l297.895 293.438L801.6 532.808a195.386 195.386 0 0 0 69.788-147.752c-1.209-109.386-90.741-197.148-200.125-196.179a201.576 201.576 0 0 0-149.822 67.489c-8.495 9.368-22.889 10.305-32.527 2.117a22.284 22.284 0 0 1-2.112-31.887A247.762 247.762 0 0 1 671.263 143.9c134.571-1.2 244.717 106.768 246.206 241.338a238.905 238.905 0 0 1-84.397 180.738L519.375 873.15a23.432 23.432 0 0 1-16.403 6.433v0.09zM323.795 443.216a22.948 22.948 0 0 1-16.126-6.476 22.28 22.28 0 0 1-0.277-32.16l180.005-179.176c9.002-8.912 23.466-9.035 32.618-0.277a22.362 22.362 0 0 1 6.956 16.023 22.384 22.384 0 0 1-6.677 16.136L340.243 436.462a23.25 23.25 0 0 1-16.265 6.849l-0.183-0.095z m0 0" p-id="3964" fill="#bfbfbf"></path></svg>