<?xml version="1.0" encoding="UTF-8" standalone="no"?>
<svg width="24px" height="24px" viewBox="0 0 24 24" version="1.1" xmlns="http://www.w3.org/2000/svg" xmlns:xlink="http://www.w3.org/1999/xlink">
    <!-- Generator: Sketch 44.1 (41455) - http://www.bohemiancoding.com/sketch -->
    <title>小图标/填色/微信图标</title>
    <desc>Created with Sketch.</desc>
    <defs></defs>
    <g id="Symbols" stroke="none" stroke-width="1" fill="none" fill-rule="evenodd">
        <g id="小图标/填色/微信图标" fill="#46C01B">
            <path d="M6.78666,6.85086 C6.25275,6.85086 5.71392,7.20354 5.71392,7.73928 C5.71392,8.27382 6.25275,8.63079 6.78666,8.63079 C7.32057,8.63079 7.67571,8.27382 7.67571,7.73928 C7.67571,7.20354 7.32057,6.85086 6.78666,6.85086 Z M14.08881,12.01797 C13.7343,12.01797 13.37673,12.37494 13.37673,12.73005 C13.37673,13.09071 13.7343,13.44216 14.08881,13.44216 C14.62764,13.44216 14.98092,13.09071 14.98092,12.73005 C14.98092,12.37494 14.62764,12.01797 14.08881,12.01797 Z M20.3139,0.0384 L3.6483,0.0384 C2.68077,0.03825 1.75281,0.42246 1.0686,1.10658 C0.38439,1.79067 0,2.71857 0,3.6861 L0,20.3517 C0,21.31929 0.38439,22.24725 1.06857,22.93143 C1.75275,23.61561 2.68071,24 3.6483,24 L20.3139,24 C22.32882,24 23.9622,22.36659 23.9622,20.3517 L23.9622,3.6861 C23.96187,1.67142 22.32858,0.0384 20.3139,0.0384 Z M9.1011,15.94152 C8.21208,15.94152 7.49691,15.75966 6.6054,15.58332 L4.11525,16.8324 L4.82733,14.68938 C3.04434,13.44276 1.97715,11.83671 1.97715,9.87987 C1.97715,6.4902 5.18493,3.82188 9.1005,3.82188 C12.60318,3.82188 15.67149,5.95446 16.28775,8.82492 C16.06017,8.79804 15.83124,8.78409 15.60207,8.78316 C12.21795,8.78316 9.54594,11.30895 9.54594,14.42088 C9.54594,14.93883 9.62643,15.4371 9.76527,15.91389 C9.54594,15.92985 9.32412,15.94152 9.1011,15.94152 Z M19.60857,18.43599 L20.14434,20.21592 L18.19053,19.14564 C17.47785,19.32441 16.76268,19.50381 16.05303,19.50381 C12.66339,19.50381 9.99444,17.18691 9.99444,14.33427 C9.99444,11.48589 12.66402,9.1647 16.05303,9.1647 C19.25406,9.1647 22.10427,11.48589 22.10427,14.33427 C22.10427,15.94152 21.03828,17.36325 19.60857,18.43599 Z M18.00744,12.01797 C17.65479,12.01797 17.29965,12.37494 17.29965,12.73005 C17.29965,13.09071 17.65479,13.44216 18.00744,13.44216 C18.54135,13.44216 18.89895,13.09071 18.89895,12.73005 C18.89895,12.37494 18.54135,12.01797 18.00744,12.01797 Z M11.77191,8.63079 C12.30828,8.63079 12.66339,8.27382 12.66339,7.73928 C12.66339,7.20354 12.30828,6.85086 11.77191,6.85086 C11.238,6.85086 10.70223,7.20354 10.70223,7.73928 C10.70223,8.27382 11.2386,8.63079 11.77191,8.63079 L11.77191,8.63079 Z" id="微信支付"></path>
        </g>
    </g>
</svg>